<?xml version="1.0" encoding="utf-8"?>
<!-- Generator: Adobe Illustrator 21.0.2, SVG Export Plug-In . SVG Version: 6.00 Build 0)  -->
<svg version="1.1" id="Capa_1" xmlns="http://www.w3.org/2000/svg" xmlns:xlink="http://www.w3.org/1999/xlink" x="0px" y="0px"
	 viewBox="0 0 1366 768" style="enable-background:new 0 0 1366 768;" xml:space="preserve">
<style type="text/css">
	.st0{fill:#E7C9B4;}
	.st1{fill:#682E2E;}
	.st2{fill:#A27667;}
	.st3{fill:#FFFFFF;}
	.st4{fill:#412F2E;}
	.st5{fill:#8C6239;}
</style>
<path d="M834,357c6-48,3.5-67.5-13.5-106.5s-40-81-64-101s-43,2-43,2c-15-11-63-14-83-9s-48.46,26.57-67,53
	c-23.5,33.5-30.5,54.5-35,76c-4.2,20.07-1.5,39.5-2,69c-0.44,25.94,5.77,64.05,6.5,94.5c1,42-4,49-3.5,75.5
	c0.56,29.73,11.36,19.78,12,41c0.5,16.5-9,26,14,35s23,20,23,20v-20c32,4,34,27,34,27c14-9,12-25,12-25
	c3.7,8.02,5.69,12.61,6.67,15.13c14.51-18.94,20.33-45.13,20.33-45.13C661,577,661,612,661,612c11-12,19-59,19-59c2,20,22,64,22,64
	c1-32,15.5-54.5,15.5-54.5c-4,42,22,60,22,60s3-17,21-15s22-14,22-14c10,18,18,13,18,13c-9-21,14.57-24.46,24.5-43.5
	c12-23,2-48.8,2-59c0-37,3-68,3-68C832,413,834,357,834,357z M771.51,311.24c-3.96,13.97-14.09,31.94-22.01,40.92
	s-28.47,19.96-43.32,22.95s-28.7,2-44.54,0c-15.84-2-30.68-8.98-44.54-18.96c-13.86-9.98-18.81-25.95-23.75-36.93
	c-4.95-10.98-13.86-56.89-13.86-56.89S589,244,605,237s97-18,108-32c0,0,15,14,35,26s31,28,31,28c1.42,8.15,1.38,15.33,0.58,21.82
	C778.1,292.66,774.06,302.22,771.51,311.24z"/>
<path class="st0" d="M779,259c0,0-11-16-31-28s-35-26-35-26c-11,14-92,25-108,32s-25.51,25.33-25.51,25.33s8.91,45.91,13.86,56.89
	c4.95,10.98,9.9,26.95,23.75,36.93c13.86,9.98,28.7,16.97,44.54,18.96c15.84,2,29.69,2.99,44.54,0s35.4-13.97,43.32-22.95
	s18.05-26.95,22.01-40.92c2.13-7.52,5.69-18.8,8.07-30.41C780.38,274.33,780.42,267.15,779,259z"/>
<g>
	<path class="st0" d="M667.5,414c0,0,4.44-21.07,4.72-39.5c0,0,12.22,2.63,24.75,0c0,0,2.53,35.29,4.53,39.5H667.5z"/>
</g>
<path class="st0" d="M605.5,570.5l-2-3c0,0-1-15,0-19s20-3,24,2c0,0,4,3,2,11s-4,3-4,2s0-3,0-3s-3,6-3,15s-5,0-5-1
	c0-0.23,0-1.02,0-2.09c0-3.47,0-9.91,0-9.91s1,17-3,14c0,0-3-1-2-14c0,0-1,11-2,12s-4-4-3-15C607.5,559.5,607.5,573.5,605.5,570.5z"
	/>
<path class="st0" d="M758.5,570.5l2-3c0,0,1-15,0-19s-20-3-24,2c0,0-4,3-2,11s4,3,4,2s0-3,0-3s3,6,3,15s5,0,5-1
	c0-0.23,0-1.02,0-2.09c0-3.47,0-9.91,0-9.91s-1,17,3,14c0,0,3-1,2-14c0,0,1,11,2,12s4-4,3-15C756.5,559.5,756.5,573.5,758.5,570.5z"
	/>
<path class="st0" d="M713.5,576.5c0,0-7,42-7,54s1,32,0,35s-4,4-7,4s-3-1-5-1s-2,2-7,0c0,0-6,1-6-2s4-21,5-27s0-62,0-62L713.5,576.5
	z"/>
<path class="st0" d="M647.5,576.5c0,0,7,42,7,54s-1,32,0,35s4,4,7,4s3-1,5-1s2,2,7,0c0,0,6,1,6-2s-4-21-5-27s0-62,0-62L647.5,576.5z
	"/>
<g>
	<path class="st1" d="M663.5,394.5l-15,1l8,12c0,0-27,12-32,30s-27,96-29,105c0,0,1,13,23,13c0,0,16,6,17-14s7-75,7-81s0-18,0-18
		s11,74-13,132c0,0,5.5-1.5,11.45,2.24c3.01,1.89,8.05-0.74,12.19,1.7c3.89,2.29,10.87,2.57,14.34,1.08
		C670.82,578.08,674,581,680,581l8-1c3,0,8,1,11,1c4.39,0,5-1,9-1c4.57,0,4.27-2.43,8-3c1.65-0.25,6,1,8.44-0.5
		c5.34-3.28,10.06-2,10.06-2c-24-58-13-132-13-132s0,12,0,18s6,61,7,81s17,14,17,14c22,0,23-13,23-13c-2-9-24-87-29-105
		s-32-30-32-30l11-13h-18L687,394l-2,5l-2-5L663.5,394.5z"/>
</g>
<path class="st2" d="M687,343c0,0-5,4-9,0s2-11,4-11S690,337,687,343z"/>
<path d="M664.13,298.65c-2.62-11.6-8.68-36.47-27.45-43.62c-14.6-5.56-26.3-5.46-34.76,0.3c-12.49,8.5-13.78,26.83-13.9,29.75
	c-0.36,0.28-0.6,0.71-0.59,1.21c0.01,0.6,0.36,1.11,0.88,1.35c0.2,0.09,0.41,0.14,0.64,0.14c2.65-0.03,4.95-0.38,6.88-0.9
	c-0.48,1.48-0.61,2.49-0.62,2.63c-0.05,0.43,0.19,0.84,0.58,1.02c0.05,0.02,0.1,0.04,0.15,0.06c0.47,0.13,0.97-0.1,1.17-0.55
	c0.93-2.02,2.17-3.83,3.68-5.41c0.53-0.39,0.95-0.8,1.27-1.21c8.5-7.54,23.61-8.89,37.71-2.43c17.54,8.04,26.96,25.19,20.98,38.22
	c-0.22,0.48-0.03,1.06,0.45,1.3c0.49,0.27,1.05,0.08,1.32-0.38C662.58,320,668.12,310.36,664.13,298.65z M597.54,283.05
	c-1.69,0.83-4.42,1.65-8.51,1.72c0.06-1.13,0.25-3.48,0.81-6.43c0.04,0.03,0.06,0.08,0.1,0.11c0.19,0.15,3.95,2.99,8,3.93
	C597.8,282.61,597.67,282.83,597.54,283.05z M656.26,286.37c-1.98-2.02-4.69-4.75-8.72-7.43c-1.35-1.89-2.95-5.08-3.11-9.76
	c-0.03-0.8-0.68-1.44-1.49-1.45c-0.8-0.01-1.47,0.63-1.51,1.43l-0.26,5.4c-0.7-0.96-1.54-2.71-2.15-5.88
	c-0.15-0.75-0.83-1.27-1.6-1.21c-0.76,0.06-1.36,0.69-1.38,1.46l-0.08,3.14c-0.21-0.24-0.43-0.49-0.66-0.75
	c-1.74-1.98-4.96-5.64-5.36-6.67c-0.07-0.74-0.69-1.33-1.46-1.35c-0.83-0.02-1.52,0.63-1.54,1.46c0,0.21-0.07,3.28,0.62,6.51
	c-0.55-0.09-1.07-0.17-1.59-0.25c-2.52-2.01-5.25-4.92-6.71-8.86c-0.28-0.75-1.11-1.15-1.87-0.9c-0.77,0.25-1.2,1.06-0.98,1.83
	c0.07,0.24,1.2,4.28,2.21,7.57c-1.42,0.08-2.53,0.24-3.34,0.4c-2.46-0.96-5.08-2.85-6.45-6.53c-0.29-0.78-1.15-1.17-1.93-0.88
	c-0.39,0.14-0.68,0.43-0.84,0.78c-0.16,0.35-0.19,0.76-0.04,1.15l2.49,6.71c-3.14-0.78-7.45-2.2-8.95-4.07
	c-0.51-0.63-1.42-0.75-2.07-0.26c-0.65,0.49-0.79,1.4-0.33,2.06c0.13,0.19,2.89,4.11,6.16,6.46c-0.23,0.18-0.46,0.35-0.67,0.53
	c-2.74,0.42-7.25,0.4-11.27-1.16c-0.34-0.13-0.7-0.13-1.02-0.02c1.57-6.52,4.93-14.8,12.1-19.68c8.18-5.57,19.56-5.63,33.84-0.19
	c15.91,6.06,22.49,25.4,25.64,37.86c-1.37-2.44-3.2-4.92-5.62-7.38L656.26,286.37z"/>
<ellipse transform="matrix(0.4167 -0.909 0.909 0.4167 89.9238 749.3708)" class="st3" cx="628.92" cy="304.61" rx="27" ry="36"/>
<ellipse transform="matrix(0.4167 -0.909 0.909 0.4167 93.3305 752.8882)" class="st4" cx="633.36" cy="303.71" rx="24" ry="24"/>
<ellipse transform="matrix(0.4167 -0.909 0.909 0.4167 93.3305 752.8882)" class="st5" cx="633.36" cy="303.71" rx="20.5" ry="20.5"/>
<ellipse transform="matrix(0.4167 -0.909 0.909 0.4167 93.3305 752.8882)" cx="633.36" cy="303.71" rx="13.5" ry="13.5"/>
<ellipse transform="matrix(0.4167 -0.909 0.909 0.4167 101.099 750.6152)" class="st3" cx="635.48" cy="296.52" rx="5.5" ry="5.5"/>
<path d="M662,294"/>
<path d="M700.49,320.12c0.27,0.46,0.83,0.64,1.32,0.38c0.47-0.25,0.67-0.82,0.45-1.3c-5.97-13.03,3.44-30.18,20.98-38.22
	c14.09-6.46,29.21-5.11,37.71,2.43c0.32,0.41,0.74,0.82,1.27,1.21c1.51,1.58,2.75,3.38,3.68,5.41c0.2,0.45,0.7,0.68,1.17,0.55
	c0.05-0.01,0.1-0.03,0.15-0.06c0.39-0.18,0.62-0.58,0.58-1.02c-0.02-0.14-0.14-1.15-0.62-2.63c1.93,0.53,4.23,0.87,6.88,0.9
	c0.23,0,0.45-0.05,0.64-0.14c0.51-0.23,0.87-0.75,0.88-1.35c0.01-0.49-0.23-0.93-0.59-1.21c-0.13-2.92-1.42-21.25-13.9-29.75
	c-8.46-5.76-20.16-5.86-34.76-0.3c-18.77,7.15-24.83,32.02-27.45,43.62C694.88,310.36,700.41,320,700.49,320.12z M765.05,282.38
	c4.05-0.94,7.81-3.79,8-3.93c0.04-0.03,0.06-0.08,0.1-0.11c0.56,2.96,0.75,5.3,0.81,6.43c-4.09-0.07-6.82-0.89-8.51-1.72
	C765.33,282.83,765.19,282.61,765.05,282.38z M706.66,286.45c-2.42,2.46-4.25,4.94-5.62,7.38c3.14-12.46,9.73-31.8,25.64-37.86
	c14.28-5.44,25.66-5.38,33.84,0.19c7.18,4.88,10.53,13.16,12.1,19.68c-0.32-0.11-0.68-0.11-1.02,0.02
	c-4.02,1.56-8.53,1.58-11.27,1.16c-0.22-0.18-0.44-0.36-0.67-0.53c3.27-2.35,6.03-6.27,6.16-6.46c0.46-0.66,0.32-1.57-0.33-2.06
	c-0.65-0.48-1.56-0.37-2.07,0.26c-1.5,1.86-5.81,3.28-8.95,4.07l2.49-6.71c0.14-0.39,0.12-0.8-0.04-1.15
	c-0.16-0.35-0.45-0.64-0.84-0.78c-0.78-0.29-1.64,0.11-1.93,0.88c-1.37,3.69-3.99,5.57-6.45,6.53c-0.81-0.16-1.93-0.32-3.34-0.4
	c1.01-3.3,2.14-7.34,2.21-7.57c0.22-0.77-0.22-1.58-0.98-1.83c-0.76-0.25-1.59,0.15-1.87,0.9c-1.46,3.94-4.19,6.85-6.71,8.86
	c-0.51,0.07-1.04,0.15-1.59,0.25c0.68-3.23,0.62-6.31,0.62-6.51c-0.02-0.83-0.71-1.48-1.54-1.46c-0.77,0.02-1.38,0.61-1.46,1.35
	c-0.4,1.03-3.62,4.69-5.36,6.67c-0.23,0.26-0.45,0.51-0.66,0.75l-0.08-3.14c-0.02-0.77-0.61-1.39-1.38-1.46
	c-0.76-0.06-1.45,0.46-1.6,1.21c-0.61,3.17-1.45,4.92-2.15,5.88l-0.26-5.4c-0.04-0.8-0.7-1.43-1.51-1.43
	c-0.81,0.01-1.46,0.65-1.49,1.45c-0.16,4.68-1.76,7.87-3.11,9.76c-4.03,2.67-6.74,5.41-8.72,7.43L706.66,286.45z"/>
<ellipse transform="matrix(0.909 -0.4167 0.4167 0.909 -60.1616 333.6311)" class="st3" cx="734.07" cy="304.61" rx="36" ry="27"/>
<ellipse transform="matrix(0.909 -0.4167 0.4167 0.909 -60.1926 331.6974)" class="st4" cx="729.63" cy="303.71" rx="24" ry="24"/>
<ellipse transform="matrix(0.909 -0.4167 0.4167 0.909 -60.1926 331.6974)" class="st5" cx="729.63" cy="303.71" rx="20.5" ry="20.5"/>
<ellipse transform="matrix(0.909 -0.4167 0.4167 0.909 -60.1926 331.6974)" cx="729.63" cy="303.71" rx="13.5" ry="13.5"/>
<ellipse transform="matrix(0.909 -0.4167 0.4167 0.909 -57.0245 331.8297)" class="st3" cx="731.52" cy="296.52" rx="5.5" ry="5.5"/>
</svg>
